<?xml version="1.0" encoding="utf-8"?><svg xmlns="http://www.w3.org/2000/svg" xmlns:xlink="http://www.w3.org/1999/xlink" width="1476" height="780" preserveAspectRatio="xMidYMid" viewBox="0 0 1476 780" style="z-index:1;margin-right:-2px;display:block;background-repeat-y:initial;background-repeat-x:initial;background-color:rgb(241, 242, 243);animation-play-state:paused" ><g transform="translate(738,390) scale(1,1) translate(-738,-390)" style="transform:matrix(1, 0, 0, 1, 0, 0);animation-play-state:paused" ><linearGradient id="lg-0.7985426642444831" x1="0" x2="1" y1="0" y2="0" style="animation-play-state:paused" ><stop stop-color="#074a6b" offset="0" style="animation-play-state:paused" ></stop>

  
<stop stop-color="#0a70a3" offset="1" style="animation-play-state:paused" ></stop></linearGradient>
<path d="M 0 0 L 0 706.111 Q 147.6 745.358 295.2 711.735 T 590.4 615.166 T 885.6 659.065 T 1180.8 550.3 T 1476 518.935 L 1476 0 Z" fill="url(#lg-0.7985426642444831)" opacity="0.4" style="opacity:0.4;animation-play-state:paused" ></path>
<path d="M 0 0 L 0 753.423 Q 147.6 687.011 295.2 662.087 T 590.4 685.174 T 885.6 624.594 T 1180.8 589.429 T 1476 524.264 L 1476 0 Z" fill="url(#lg-0.7985426642444831)" opacity="0.4" style="opacity:0.4;animation-play-state:paused" ></path>
<path d="M 0 0 L 0 749.882 Q 147.6 697.027 295.2 681.171 T 590.4 685.2 T 885.6 632.828 T 1180.8 598.547 T 1476 508.433 L 1476 0 Z" fill="url(#lg-0.7985426642444831)" opacity="0.4" style="opacity:0.4;animation-play-state:paused" ></path>
<path d="M 0 0 L 0 735.24 Q 147.6 751.064 295.2 724.82 T 590.4 671.946 T 885.6 649.78 T 1180.8 589.451 T 1476 568.034 L 1476 0 Z" fill="url(#lg-0.7985426642444831)" opacity="0.4" style="opacity:0.4;animation-play-state:paused" ></path>
<path d="M 0 0 L 0 736.453 Q 147.6 702.928 295.2 674.1 T 590.4 660.467 T 885.6 640.052 T 1180.8 594.497 T 1476 541.086 L 1476 0 Z" fill="url(#lg-0.7985426642444831)" opacity="0.4" style="opacity:0.4;animation-play-state:paused" ></path></g></svg>